{"title":"Avengers Age of Ultron (2015) 720p Blu-Ray x264 [Dual-Audio] [En","uid":12408749,"size":1485733309,"categoryP":"video","categoryS":"movies","magnet":"?xt=urn:btih:34e6b2686642a44b2be18024c965cc0c33a670d0&amp;dn=Avengers+Age+of+Ultron+%282015%29+720p+Blu-Ray+x264+%5BDual-Audio%5D+%5BEn&amp;tr=udp%3A%2F%2Ftracker.openbittorrent.com%3A80&amp;tr=udp%3A%2F%2Fopen.demonii.com%3A1337&amp;tr=udp%3A%2F%2Ftracker.coppersurfer.tk%3A6969&amp;tr=udp%3A%2F%2Fexodus.desync.com%3A6969","seeders":8,"leechers":9,"uploader":"praneet_gupta777","files":2,"time":1442124043,"description":"[center]\n[b][size=7]Avengers Age of Ultron (2015) 720p Blu-Ray x264 [Dual-Audio] [English 5.1 + Hindi 5.1] Esubs [PKG][/size][/b]\n\n\n\n\n\n[img]http://extraimago.com/images/2015/09/12/big.jpg[/img]\n\n\n\n[img]http://extraimago.com/images/2015/09/12/Untitled.png[/img]\n\n\n\n\n[img]http://img9.uploadhouse.com/fileuploads/15981/15981250a2a3770f9f004bcdf00afac92833ebdb.png[/img]\n\n\n[quote]\n\nGeneral\nUnique ID                   : 184975410647270978073334643105879349082 (0x8B28F7DE307971ED904C2F979D3CD75A)\nComplete name               : G:Avengers Age of Ultron (2015) 720p Blu-Ray x264 [Dual-Audio] [English 5.1 + Hindi 5.1] Esubs [PKG]Avengers Age of Ultron (2015) 720p Blu-Ray x264 [Dual-Audio] [English 5.1 + Hindi 5.1] Esubs [PKG].mkv\nFormat                      : Matroska\nFormat version              : Version 4 / Version 2\nFile size                   : 1.38 GiB\nDuration                    : 2h 21mn\nOverall bit rate            : 1 399 Kbps\nMovie name                  : Avengers: Age of Ultron (2015) 720p Blu-Ray x264 [Dual-Audio] [English 5.1 + Hindi 5.1] Esubs [PKG]\nEncoded date                : UTC 2015-09-12 05:54:11\nWriting application         : mkvmerge v7.7.0 ('Six Voices') 64bit built on Feb 28 2015 23:39:33\nWriting library             : libebml v1.3.1 + libmatroska v1.4.2\nDURATION                    : 02:20:59.163000000\nNUMBER_OF_FRAMES            : 1885\nNUMBER_OF_BYTES             : 56445\n\n\nVideo\nID                          : 1\nFormat                      : AVC\nFormat/Info                 : Advanced Video Codec\nFormat profile              : &lt;a class=&quot;__cf_email__&quot; href=&quot;/cdn-cgi/l/email-protection&quot; data-cfemail=&quot;8fc7e6e8e7cfc3bba1be&quot;&gt;[email&amp;#160;protected]&lt;/a&gt;&lt;script data-cfhash='f9e31' type=&quot;text/javascript&quot;&gt;\n/* &lt;![CDATA[ */!function(){try{var t=&quot;currentScript&quot;in document?document.currentScript:function(){for(var t=document.getElementsByTagName(&quot;script&quot;),e=t.length;e--;)if(t[e].getAttribute(&quot;data-cfhash&quot;))return t[e]}();if(t&amp;&amp;t.previousSibling){var e,r,n,i,c=t.previousSibling,a=c.getAttribute(&quot;data-cfemail&quot;);if(a){for(e=&quot;&quot;,r=parseInt(a.substr(0,2),16),n=2;a.length-n;n+=2)i=parseInt(a.substr(n,2),16)^r,e+=String.fromCharCode(i);e=document.createTextNode(e),c.parentNode.replaceChild(e,c)}t.parentNode.removeChild(t);}}catch(u){}}()/* ]]&gt; */&lt;/script&gt;\nFormat settings, CABAC      : Yes\nFormat settings, ReFrames   : 5 frames\nCodec ID                    : V_MPEG4/ISO/AVC\nDuration                    : 2h 21mn\nBit rate                    : 949 Kbps\nWidth                       : 1 280 pixels\nHeight                      : 536 pixels\nDisplay aspect ratio        : 2.40:1\nFrame rate mode             : Constant\nFrame rate                  : 23.976 fps\nColor space                 : YUV\nChroma subsampling          : 4:2:0\nBit depth                   : 8 bits\nScan type                   : Progressive\nBits/(Pixel*Frame)          : 0.058\nStream size                 : 933 MiB (66%)\nTitle                       : [PKG]\nWriting library             : x264 core 146 r2538 121396c\nEncoding settings           : cabac=1 / ref=5 / deblock=1:-1:-1 / analyse=0x3:0x113 / me=umh / subme=9 / psy=1 / psy_rd=1.00:0.15 / mixed_ref=1 / me_range=24 / chroma_me=1 / trellis=2 / 8x8dct=1 / cqm=0 / deadzone=21,11 / fast_pskip=0 / chroma_qp_offset=-3 / threads=12 / lookahead_threads=1 / sliced_threads=0 / nr=0 / decimate=1 / interlaced=0 / bluray_compat=0 / constrained_intra=0 / bframes=3 / b_pyramid=2 / b_adapt=2 / b_bias=0 / direct=3 / weightb=1 / open_gop=0 / weightp=2 / keyint=240 / keyint_min=23 / scenecut=40 / intra_refresh=0 / rc_lookahead=60 / rc=2pass / mbtree=1 / bitrate=949 / ratetol=1.0 / qcomp=0.60 / qpmin=0 / qpmax=69 / qpstep=4 / cplxblur=20.0 / qblur=0.5 / vbv_maxrate=31250 / vbv_bufsize=31250 / nal_hrd=none / filler=0 / ip_ratio=1.40 / aq=1:1.00\nDefault                     : Yes\nForced                      : No\nColor primaries             : BT.709\nMatrix coefficients         : BT.709\nColor range                 : Limited\n\nAudio #1\nID                          : 2\nFormat                      : AC-3\nFormat/Info                 : Audio Coding 3\nMode extension              : CM (complete main)\nFormat settings, Endianness : Big\nCodec ID                    : A_AC3\nDuration                    : 2h 21mn\nBit rate mode               : Constant\nBit rate                    : 224 Kbps\nChannel(s)                  : 6 channels\nChannel positions           : Front: L C R, Side: L R, LFE\nSampling rate               : 48.0 KHz\nBit depth                   : 16 bits\nCompression mode            : Lossy\nStream size                 : 226 MiB (16%)\nTitle                       : [PKG]\nLanguage                    : Hindi\nDefault                     : Yes\nForced                      : Yes\n\nAudio #2\nID                          : 3\nFormat                      : AC-3\nFormat/Info                 : Audio Coding 3\nMode extension              : CM (complete main)\nFormat settings, Endianness : Big\nCodec ID                    : A_AC3\nDuration                    : 2h 21mn\nBit rate mode               : Constant\nBit rate                    : 224 Kbps\nChannel(s)                  : 6 channels\nChannel positions           : Front: L C R, Side: L R, LFE\nSampling rate               : 48.0 KHz\nBit depth                   : 16 bits\nCompression mode            : Lossy\nStream size                 : 226 MiB (16%)\nTitle                       : [PKG]\nLanguage                    : English\nDefault                     : No\nForced                      : No\n\nText\nID                          : 4\nFormat                      : UTF-8\nCodec ID                    : S_TEXT/UTF8\nCodec ID/Info               : UTF-8 Plain Text\nTitle                       : [PKG]\nLanguage                    : English\nDefault                     : Yes\nForced                      : No\n\nMenu\n00:00:00.000                : en:Chapter 1\n00:12:15.194                : en:Chapter 2\n00:21:23.951                : en:Chapter 3\n00:33:01.775                : en:Chapter 4\n00:36:07.627                : en:Chapter 5\n00:42:00.772                : en:Chapter 6\n00:52:44.750                : en:Chapter 7\n00:59:01.919                : en:Chapter 8\n01:15:51.095                : en:Chapter 9\n01:27:08.607                : en:Chapter 10\n01:36:44.767                : en:Chapter 11\n01:54:35.338                : en:Chapter 12\n02:06:27.592                : en:Chapter 13\n02:11:08.039                : en:Chapter 14\n\n\n[color=navy][size=6][b]SAMPLE WITHIN TORRENT[/b][/size][/color]\n\n\n\n\n\n[img]http://icons.iconarchive.com/icons/tribalmarkings/colorflow/256/screenshots-icon.png[/img]\n\n\n\n[img]http://extraimago.com/images/2015/09/12/AvengersAgeofUltron2015720pBlu-Rayx264Dual-AudioEnglish5.1Hindi5.1EsubsPKG.mkv_thumbs_2015.09.12_19.49.44.jpg[/img]\n\n\n\n[/center]","torrent":{"xt":"urn:btih:34e6b2686642a44b2be18024c965cc0c33a670d0","amp;dn":"Avengers+Age+of+Ultron+%282015%29+720p+Blu-Ray+x264+%5BDual-Audio%5D+%5BEn","amp;tr":["udp%3A%2F%2Ftracker.openbittorrent.com%3A80","udp%3A%2F%2Fopen.demonii.com%3A1337","udp%3A%2F%2Ftracker.coppersurfer.tk%3A6969","udp%3A%2F%2Fexodus.desync.com%3A6969"],"infoHash":"34e6b2686642a44b2be18024c965cc0c33a670d0","infoHashBuffer":{"type":"Buffer","data":[52,230,178,104,102,66,164,75,43,225,128,36,201,101,204,12,51,166,112,208]},"announce":[],"urlList":[]}}